<?xml version="1.0" encoding="utf-8"?>
<!-- Generator: Adobe Illustrator 15.1.0, SVG Export Plug-In . SVG Version: 6.00 Build 0)  -->
<!DOCTYPE svg PUBLIC "-//W3C//DTD SVG 1.1//EN" "http://www.w3.org/Graphics/SVG/1.1/DTD/svg11.dtd">
<svg version="1.1" id="Layer_1" xmlns="http://www.w3.org/2000/svg" xmlns:xlink="http://www.w3.org/1999/xlink" x="0px" y="0px"
	 width="28.175px" height="27.895px" viewBox="0 0 28.175 27.895" enable-background="new 0 0 28.175 27.895" xml:space="preserve">
<g>
	<rect x="13.016" y="8.893" fill="#8E96A2" width="1.794" height="9.864"/>
</g>
<rect x="13.016" y="8.893" fill="none" stroke="#8E96A2" stroke-width="0.5" stroke-miterlimit="10" width="1.794" height="9.864"/>
<rect x="9.4" y="13.097" fill="#8E96A2" width="9.242" height="1.722"/>
<rect x="9.4" y="13.097" fill="none" stroke="#8E96A2" stroke-width="0.5" stroke-miterlimit="10" width="9.242" height="1.722"/>
<rect x="20.316" y="2.294" fill="#8E96A2" width="1.695" height="9.326"/>
<rect x="20.316" y="2.294" fill="none" stroke="#8E96A2" stroke-width="0.5" stroke-miterlimit="10" width="1.695" height="9.326"/>
<rect x="16.897" y="6.268" fill="#8E96A2" width="8.737" height="1.627"/>
<rect x="16.897" y="6.268" fill="none" stroke="#8E96A2" stroke-width="0.5" stroke-miterlimit="10" width="8.737" height="1.627"/>
<rect x="13.405" y="0.25" fill="#8E96A2" width="1.061" height="5.837"/>
<rect x="13.405" y="0.25" fill="none" stroke="#8E96A2" stroke-width="0.5" stroke-miterlimit="10" width="1.061" height="5.837"/>
<rect x="11.265" y="2.736" fill="#8E96A2" width="5.47" height="1.019"/>
<rect x="11.265" y="2.736" fill="none" stroke="#8E96A2" stroke-width="0.5" stroke-miterlimit="10" width="5.47" height="1.019"/>
<rect x="5.943" y="2.582" fill="#8E96A2" width="1.652" height="9.087"/>
<rect x="5.943" y="2.582" fill="none" stroke="#8E96A2" stroke-width="0.5" stroke-miterlimit="10" width="1.652" height="9.087"/>
<rect x="2.611" y="6.452" fill="#8E96A2" width="8.515" height="1.587"/>
<rect x="2.611" y="6.452" fill="none" stroke="#8E96A2" stroke-width="0.5" stroke-miterlimit="10" width="8.515" height="1.587"/>
<rect x="24.361" y="10.777" fill="#8E96A2" width="1.439" height="6.072"/>
<rect x="24.361" y="10.777" fill="none" stroke="#8E96A2" stroke-width="0.5" stroke-miterlimit="10" width="1.439" height="6.072"/>
<rect x="22.074" y="13.084" fill="#8E96A2" width="5.852" height="1.398"/>
<rect x="22.074" y="13.084" fill="none" stroke="#8E96A2" stroke-width="0.5" stroke-miterlimit="10" width="5.852" height="1.398"/>
<rect x="20.558" y="16.051" fill="#8E96A2" width="1.511" height="8.592"/>
<rect x="20.558" y="16.051" fill="none" stroke="#8E96A2" stroke-width="0.5" stroke-miterlimit="10" width="1.511" height="8.592"/>
<rect x="16.968" y="19.64" fill="#8E96A2" width="8.615" height="1.459"/>
<rect x="16.968" y="19.64" fill="none" stroke="#8E96A2" stroke-width="0.5" stroke-miterlimit="10" width="8.615" height="1.459"/>
<rect x="13.332" y="21.132" fill="#8E96A2" width="1.509" height="6.513"/>
<rect x="13.332" y="21.132" fill="none" stroke="#8E96A2" stroke-width="0.5" stroke-miterlimit="10" width="1.509" height="6.513"/>
<rect x="11.014" y="23.824" fill="#8E96A2" width="6.272" height="1.219"/>
<rect x="11.014" y="23.824" fill="none" stroke="#8E96A2" stroke-width="0.5" stroke-miterlimit="10" width="6.272" height="1.219"/>
<rect x="6.196" y="16.1" fill="#8E96A2" width="1.54" height="8.521"/>
<rect x="6.196" y="16.1" fill="none" stroke="#8E96A2" stroke-width="0.5" stroke-miterlimit="10" width="1.54" height="8.521"/>
<rect x="2.693" y="19.704" fill="#8E96A2" width="8.543" height="1.34"/>
<rect x="2.693" y="19.704" fill="none" stroke="#8E96A2" stroke-width="0.5" stroke-miterlimit="10" width="8.543" height="1.34"/>
<rect x="2.344" y="10.68" fill="#8E96A2" width="1.181" height="6.25"/>
<rect x="2.344" y="10.68" fill="none" stroke="#8E96A2" stroke-width="0.5" stroke-miterlimit="10" width="1.181" height="6.25"/>
<rect x="0.25" y="13.357" fill="#8E96A2" width="5.698" height="0.898"/>
<rect x="0.25" y="13.357" fill="none" stroke="#8E96A2" stroke-width="0.5" stroke-miterlimit="10" width="5.698" height="0.898"/>
</svg>
