<?xml version="1.0" encoding="utf-8"?>
<!-- Generator: Adobe Illustrator 15.1.0, SVG Export Plug-In . SVG Version: 6.00 Build 0)  -->
<!DOCTYPE svg PUBLIC "-//W3C//DTD SVG 1.1//EN" "http://www.w3.org/Graphics/SVG/1.1/DTD/svg11.dtd">
<svg version="1.1" id="Layer_1" xmlns="http://www.w3.org/2000/svg" xmlns:xlink="http://www.w3.org/1999/xlink" x="0px" y="0px"
	 width="329.449px" height="325.768px" viewBox="0 0 329.449 325.768" enable-background="new 0 0 329.449 325.768"
	 xml:space="preserve">
<g>
	<g>
		<g>
			<rect x="151.152" y="103.632" fill="#FFFFFF" stroke="#FFFFFF" stroke-miterlimit="10" width="20.891" height="114.806"/>
			<rect x="109.066" y="152.562" fill="#FFFFFF" stroke="#FFFFFF" stroke-miterlimit="10" width="107.564" height="20.026"/>
		</g>
	</g>
	<g>
		<rect x="236.121" y="26.824" fill="#FFFFFF" stroke="#FFFFFF" stroke-miterlimit="10" width="19.73" height="108.542"/>
		<rect x="196.32" y="73.082" fill="#FFFFFF" stroke="#FFFFFF" stroke-miterlimit="10" width="101.698" height="18.937"/>
	</g>
	<g>
		<rect x="155.688" y="3.036" fill="#FFFFFF" stroke="#FFFFFF" stroke-miterlimit="10" width="12.342" height="67.932"/>
		<rect x="130.786" y="31.984" fill="#FFFFFF" stroke="#FFFFFF" stroke-miterlimit="10" width="63.646" height="11.854"/>
	</g>
	<g>
		<rect x="68.843" y="30.177" fill="#FFFFFF" stroke="#FFFFFF" stroke-miterlimit="10" width="19.23" height="105.757"/>
		<rect x="30.064" y="75.23" fill="#FFFFFF" stroke="#FFFFFF" stroke-miterlimit="10" width="99.096" height="18.469"/>
	</g>
	<rect x="283.199" y="125.569" fill="#FFFFFF" stroke="#FFFFFF" stroke-miterlimit="10" width="16.752" height="70.671"/>
	<rect x="256.58" y="152.414" fill="#FFFFFF" stroke="#FFFFFF" stroke-miterlimit="10" width="68.102" height="16.266"/>
	<rect x="238.94" y="186.942" fill="#FFFFFF" stroke="#FFFFFF" stroke-miterlimit="10" width="17.571" height="99.995"/>
	<rect x="197.162" y="228.711" fill="#FFFFFF" stroke="#FFFFFF" stroke-miterlimit="10" width="100.254" height="16.979"/>
	<rect x="154.835" y="246.089" fill="#FFFFFF" stroke="#FFFFFF" stroke-miterlimit="10" width="17.559" height="75.784"/>
	<rect x="127.854" y="277.413" fill="#FFFFFF" stroke="#FFFFFF" stroke-miterlimit="10" width="72.989" height="14.184"/>
	<rect x="71.787" y="187.499" fill="#FFFFFF" stroke="#FFFFFF" stroke-miterlimit="10" width="17.924" height="99.177"/>
	<rect x="31.008" y="229.449" fill="#FFFFFF" stroke="#FFFFFF" stroke-miterlimit="10" width="99.425" height="15.594"/>
	<rect x="26.95" y="124.444" fill="#FFFFFF" stroke="#FFFFFF" stroke-miterlimit="10" width="13.741" height="72.729"/>
	<rect x="2.582" y="155.596" fill="#FFFFFF" stroke="#FFFFFF" stroke-miterlimit="10" width="66.307" height="10.455"/>
</g>
</svg>
